<svg width="38" height="32" viewBox="0 0 38 32" fill="none" xmlns="http://www.w3.org/2000/svg">
<path d="M1.9375 6.3125H36.0625C36.7874 6.3125 37.375 5.75289 37.375 5.0625V1.9375C37.375 1.24711 36.7874 0.6875 36.0625 0.6875H1.9375C1.21259 0.6875 0.625 1.24711 0.625 1.9375V5.0625C0.625 5.75289 1.21259 6.3125 1.9375 6.3125ZM1.9375 18.8125H36.0625C36.7874 18.8125 37.375 18.2529 37.375 17.5625V14.4375C37.375 13.7471 36.7874 13.1875 36.0625 13.1875H1.9375C1.21259 13.1875 0.625 13.7471 0.625 14.4375V17.5625C0.625 18.2529 1.21259 18.8125 1.9375 18.8125ZM1.9375 31.3125H36.0625C36.7874 31.3125 37.375 30.7529 37.375 30.0625V26.9375C37.375 26.2471 36.7874 25.6875 36.0625 25.6875H1.9375C1.21259 25.6875 0.625 26.2471 0.625 26.9375V30.0625C0.625 30.7529 1.21259 31.3125 1.9375 31.3125Z" fill="white"/>
</svg>
